<svg width="400" height="200" viewBox="0 0 400 200" xmlns="http://www.w3.org/2000/svg">
  <defs>
    <linearGradient id="danceGradient" x1="0%" y1="0%" x2="100%" y2="100%">
      <stop offset="0%" style="stop-color:#ff6b6b"/>
      <stop offset="100%" style="stop-color:#feca57"/>
    </linearGradient>
  </defs>
  <rect width="400" height="200" fill="url(#danceGradient)"/>
  
  <!-- Music notes -->
  <g fill="rgba(255,255,255,0.8)">
    <circle cx="120" cy="80" r="8"/>
    <rect x="127" y="60" width="3" height="35"/>
    <path d="M130 60 Q145 55 145 65 Q145 75 130 70 Z"/>
    
    <circle cx="180" cy="120" r="8"/>
    <rect x="187" y="100" width="3" height="35"/>
    <path d="M190 100 Q205 95 205 105 Q205 115 190 110 Z"/>
    
    <circle cx="260" cy="70" r="8"/>
    <rect x="267" y="50" width="3" height="35"/>
    <path d="M270 50 Q285 45 285 55 Q285 65 270 60 Z"/>
  </g>
  
  <!-- Dancing figure (simplified) -->
  <g fill="rgba(255,255,255,0.9)" transform="translate(200,130)">
    <circle cx="0" cy="-20" r="8"/>
    <rect x="-2" y="-12" width="4" height="25" rx="2"/>
    <rect x="-12" y="-8" width="8" height="3" rx="1"/>
    <rect x="4" y="-5" width="8" height="3" rx="1"/>
    <rect x="-8" y="13" width="6" height="15" rx="2"/>
    <rect x="2" y="18" width="6" height="10" rx="2"/>
  </g>
  
  <!-- Title -->
  <text x="200" y="50" text-anchor="middle" font-family="system-ui, -apple-system, sans-serif" font-size="24" font-weight="600" fill="white">
    Boogie Battle
  </text>
  <text x="200" y="75" text-anchor="middle" font-family="system-ui, -apple-system, sans-serif" font-size="16" fill="rgba(255,255,255,0.9)">
    Mobile App
  </text>
</svg>